<svg width="128" height="128" viewBox="0 0 128 128" fill="none" xmlns="http://www.w3.org/2000/svg">
<rect width="128" height="128" rx="24" fill="white"/>
<path d="M65.636 68.068C67.4593 63.8416 70.6846 60.3735 74.7677 58.2487C78.8509 56.124 83.5419 55.4726 88.0495 56.4046C92.5571 57.3365 96.6052 59.7948 99.511 63.3645C102.417 66.9343 104.002 71.3971 104 76C104 91.464 88 104 68 104C51.692 104 35.388 100.72 26.516 94.152C24.812 92.888 23.992 90.824 24.036 88.704C24.472 66.892 26.508 24 56 24C59.1826 24 62.2349 25.2643 64.4853 27.5147C66.7357 29.7652 68 32.8174 68 36C68 38.1217 67.1572 40.1566 65.6569 41.6569C64.1566 43.1571 62.1217 44 60 44C55.58 44 53.44 42.224 52 40" stroke="#1B2939" stroke-width="6" stroke-linecap="round" stroke-linejoin="round"/>
<path d="M76 72C73.586 70.1885 70.7932 68.9468 67.8311 68.368C64.8689 67.7892 61.8142 67.8883 58.8958 68.6579C55.9774 69.4276 53.2711 70.8477 50.9795 72.8119C48.688 74.7762 46.8708 77.2336 45.664 80" stroke="#1B2939" stroke-width="6" stroke-linecap="round" stroke-linejoin="round"/>
<path d="M55.856 43.3C48.076 47.908 54 68 48 76" stroke="#1B2939" stroke-width="6" stroke-linecap="round" stroke-linejoin="round"/>
</svg>
